<mxfile host="app.diagrams.net" modified="2023-06-07T08:09:40.349Z" agent="Mozilla/5.0 (Macintosh; Intel Mac OS X 10_15_7) AppleWebKit/605.1.15 (KHTML, like Gecko) Version/16.4 Safari/605.1.15" etag="hShPJQyl2Y5bjDGaLVgz" version="21.3.7">
  <diagram name="Seite-1" id="n-zzxeImCiMwwyzZX6F9">
    <mxGraphModel dx="855" dy="512" grid="1" gridSize="10" guides="1" tooltips="1" connect="1" arrows="1" fold="1" page="1" pageScale="1" pageWidth="827" pageHeight="1169" math="0" shadow="0">
      <root>
        <mxCell id="0" />
        <mxCell id="1" parent="0" />
        <mxCell id="4hPN_xKUDlY_Exep0QY8-1" value="transaction span" style="rounded=1;whiteSpace=wrap;html=1;fillColor=#dae8fc;strokeColor=#6c8ebf;" vertex="1" parent="1">
          <mxGeometry x="40" y="10" width="780" height="40" as="geometry" />
        </mxCell>
        <mxCell id="4hPN_xKUDlY_Exep0QY8-2" value="preHandle span" style="rounded=1;whiteSpace=wrap;html=1;fillColor=#dae8fc;strokeColor=#6c8ebf;" vertex="1" parent="1">
          <mxGeometry x="80" y="90" width="280" height="40" as="geometry" />
        </mxCell>
        <mxCell id="4hPN_xKUDlY_Exep0QY8-3" value="preHandle span" style="rounded=1;whiteSpace=wrap;html=1;fillColor=#dae8fc;strokeColor=#6c8ebf;" vertex="1" parent="1">
          <mxGeometry x="80" y="170" width="200" height="40" as="geometry" />
        </mxCell>
        <mxCell id="4hPN_xKUDlY_Exep0QY8-4" value="handle span" style="rounded=1;whiteSpace=wrap;html=1;fillColor=#dae8fc;strokeColor=#6c8ebf;" vertex="1" parent="1">
          <mxGeometry x="440" y="90" width="320" height="40" as="geometry" />
        </mxCell>
        <mxCell id="4hPN_xKUDlY_Exep0QY8-5" value="" style="endArrow=open;html=1;rounded=0;endFill=0;entryX=0;entryY=0.5;entryDx=0;entryDy=0;exitX=0.026;exitY=1.037;exitDx=0;exitDy=0;exitPerimeter=0;" edge="1" parent="1" source="4hPN_xKUDlY_Exep0QY8-1" target="4hPN_xKUDlY_Exep0QY8-2">
          <mxGeometry width="50" height="50" relative="1" as="geometry">
            <mxPoint x="50" y="60" as="sourcePoint" />
            <mxPoint x="50" y="60" as="targetPoint" />
            <Array as="points">
              <mxPoint x="60" y="110" />
            </Array>
          </mxGeometry>
        </mxCell>
        <mxCell id="4hPN_xKUDlY_Exep0QY8-6" value="" style="endArrow=open;html=1;rounded=0;endFill=0;entryX=0;entryY=0.5;entryDx=0;entryDy=0;exitX=0.026;exitY=1.037;exitDx=0;exitDy=0;exitPerimeter=0;" edge="1" parent="1" target="4hPN_xKUDlY_Exep0QY8-3">
          <mxGeometry width="50" height="50" relative="1" as="geometry">
            <mxPoint x="60" y="100" as="sourcePoint" />
            <mxPoint x="80" y="159" as="targetPoint" />
            <Array as="points">
              <mxPoint x="60" y="190" />
            </Array>
          </mxGeometry>
        </mxCell>
        <mxCell id="4hPN_xKUDlY_Exep0QY8-7" value="" style="endArrow=open;html=1;rounded=0;endFill=0;entryX=0;entryY=0.5;entryDx=0;entryDy=0;exitX=0.026;exitY=1.037;exitDx=0;exitDy=0;exitPerimeter=0;" edge="1" parent="1">
          <mxGeometry width="50" height="50" relative="1" as="geometry">
            <mxPoint x="420" y="50" as="sourcePoint" />
            <mxPoint x="440" y="109" as="targetPoint" />
            <Array as="points">
              <mxPoint x="420" y="109" />
            </Array>
          </mxGeometry>
        </mxCell>
        <mxCell id="4hPN_xKUDlY_Exep0QY8-24" value="" style="rounded=1;whiteSpace=wrap;html=1;fillColor=#fff2cc;strokeColor=#d6b656;movable=1;resizable=1;rotatable=1;deletable=1;editable=1;locked=0;connectable=1;" vertex="1" parent="1">
          <mxGeometry x="410" y="160" width="210" height="100" as="geometry" />
        </mxCell>
        <mxCell id="4hPN_xKUDlY_Exep0QY8-25" value="ThreadContext" style="text;html=1;strokeColor=none;fillColor=none;align=center;verticalAlign=middle;whiteSpace=wrap;rounded=0;" vertex="1" parent="1">
          <mxGeometry x="480" y="160" width="60" height="30" as="geometry" />
        </mxCell>
        <mxCell id="4hPN_xKUDlY_Exep0QY8-26" value="&lt;span style=&quot;font-size: 8px;&quot;&gt;&lt;font color=&quot;#4d4d4d&quot;&gt;someKey&lt;/font&gt;&lt;/span&gt;&lt;span style=&quot;white-space: pre; font-size: 8px;&quot;&gt;&lt;font color=&quot;#4d4d4d&quot;&gt;&#x9;&lt;/font&gt;&lt;span style=&quot;white-space: pre; font-size: 8px;&quot;&gt;&lt;font color=&quot;#4d4d4d&quot;&gt;&#x9;&lt;span style=&quot;white-space: pre;&quot;&gt;&#x9;&lt;span style=&quot;white-space: pre;&quot;&gt;&#x9;&lt;/span&gt;&lt;/span&gt;&lt;/font&gt;&lt;span style=&quot;white-space: pre; font-size: 8px;&quot;&gt;&lt;font color=&quot;#4d4d4d&quot;&gt;someValue&lt;br style=&quot;font-size: 8px;&quot;&gt;&lt;span style=&quot;font-size: 8px;&quot;&gt;thread&lt;/span&gt;&lt;/font&gt;&lt;span style=&quot;white-space: pre; font-size: 8px;&quot;&gt;&lt;font color=&quot;#4d4d4d&quot;&gt;&#x9;&lt;/font&gt;&lt;span style=&quot;white-space: pre; font-size: 8px;&quot;&gt;&lt;font color=&quot;#4d4d4d&quot;&gt;&#x9;&lt;/font&gt;&lt;span style=&quot;white-space: pre; font-size: 8px;&quot;&gt;&lt;font color=&quot;#4d4d4d&quot;&gt;&#x9;&lt;span style=&quot;white-space: pre;&quot;&gt;&#x9;&lt;/span&gt;node-14-thread-12&lt;/font&gt;&lt;br style=&quot;font-size: 8px;&quot;&gt;&lt;/span&gt;&lt;/span&gt;&lt;/span&gt;&lt;b style=&quot;font-size: 8px;&quot;&gt;currentSpanId&lt;/b&gt;&lt;span style=&quot;white-space: pre; font-size: 8px;&quot;&gt;&#x9;&lt;span style=&quot;white-space: pre; font-size: 8px;&quot;&gt;&#x9;0x2d8e&lt;br style=&quot;font-size: 8px;&quot;&gt;&lt;/span&gt;&lt;/span&gt;&lt;b style=&quot;font-size: 8px;&quot;&gt;currentSpanType&lt;/b&gt;&lt;span style=&quot;white-space: pre; font-size: 8px;&quot;&gt;&#x9;&lt;span style=&quot;white-space: pre; font-size: 8px;&quot;&gt;&#x9;transaction handling&lt;br style=&quot;font-size: 8px;&quot;&gt;&lt;/span&gt;&lt;/span&gt;&lt;font color=&quot;#4d4d4d&quot;&gt;&lt;span style=&quot;font-size: 8px;&quot;&gt;transactionId&lt;/span&gt;&lt;span style=&quot;white-space: pre; font-size: 8px;&quot;&gt;&#x9;&lt;span style=&quot;white-space: pre; font-size: 8px;&quot;&gt;&#x9;&lt;span style=&quot;white-space: pre;&quot;&gt;&#x9;&lt;/span&gt;0xd74e7a48b2&lt;/span&gt;&lt;/span&gt;&lt;/font&gt;&lt;br style=&quot;font-size: 8px;&quot;&gt;&lt;/span&gt;&lt;/span&gt;&lt;/span&gt;" style="text;html=1;strokeColor=none;fillColor=none;align=left;verticalAlign=top;whiteSpace=wrap;rounded=0;fontSize=8;" vertex="1" parent="1">
          <mxGeometry x="421" y="185" width="189" height="75" as="geometry" />
        </mxCell>
        <mxCell id="4hPN_xKUDlY_Exep0QY8-27" value="" style="endArrow=none;html=1;rounded=0;" edge="1" parent="1">
          <mxGeometry width="50" height="50" relative="1" as="geometry">
            <mxPoint x="420" y="185" as="sourcePoint" />
            <mxPoint x="610" y="185" as="targetPoint" />
          </mxGeometry>
        </mxCell>
        <mxCell id="4hPN_xKUDlY_Exep0QY8-28" value="" style="endArrow=open;html=1;rounded=0;endFill=0;strokeColor=#999999;entryX=1.004;entryY=0.499;entryDx=0;entryDy=0;entryPerimeter=0;exitX=0.655;exitY=0.975;exitDx=0;exitDy=0;exitPerimeter=0;" edge="1" parent="1" source="4hPN_xKUDlY_Exep0QY8-4" target="4hPN_xKUDlY_Exep0QY8-24">
          <mxGeometry width="50" height="50" relative="1" as="geometry">
            <mxPoint x="680" y="240" as="sourcePoint" />
            <mxPoint x="630" y="220" as="targetPoint" />
            <Array as="points">
              <mxPoint x="650" y="210" />
            </Array>
          </mxGeometry>
        </mxCell>
        <mxCell id="4hPN_xKUDlY_Exep0QY8-29" value="The metadata properties currentSpanId and currentSpanType are automatically added and removed from the ThreadContext" style="text;html=1;strokeColor=none;fillColor=none;align=left;verticalAlign=top;whiteSpace=wrap;rounded=0;fontSize=8;fontColor=#999999;" vertex="1" parent="1">
          <mxGeometry x="652" y="143" width="110" height="65" as="geometry" />
        </mxCell>
      </root>
    </mxGraphModel>
  </diagram>
</mxfile>
